<svg width="440" height="330" viewBox="0 0 440 330" fill="none" xmlns="http://www.w3.org/2000/svg">
<path fill-rule="evenodd" clip-rule="evenodd" d="M322.964 0C338.677 0 351.671 8.95125 361.186 18.3562C371.091 28.1119 380.173 41.2294 388.246 55.6875C404.453 84.6862 418.559 122.574 427.888 160.009C437.155 197.154 442.283 235.95 439.009 266.454C435.714 297.083 419.96 330 384.745 330C354.349 330 330.13 314.325 310.319 298.423L303.091 292.462L292.959 283.903L283.816 276.313C262.831 259.297 244.193 247.5 219.996 247.5C195.799 247.5 177.161 259.297 156.176 276.313L147.033 283.903L136.901 292.462L129.693 298.423C109.841 314.325 85.6228 330 55.2473 330C20.0116 330 4.25754 297.083 0.98316 266.454C-2.27063 235.929 2.83658 197.154 12.1037 160.009C21.4326 122.574 35.5392 84.6862 51.7464 55.6669C59.819 41.2294 68.9008 28.1119 78.8063 18.3356C88.3206 8.95125 101.315 0 117.028 0C127.634 0 137.992 2.53687 148.186 5.56875L160.378 9.30188C162.409 9.93438 164.434 10.5325 166.453 11.0963C184.266 16.2113 202.491 20.625 219.996 20.625C237.501 20.625 255.726 16.2113 273.539 11.0963L291.765 5.58937C302.02 2.5575 312.461 0 322.964 0ZM322.964 41.25C315.077 41.25 306.839 43.6425 298.849 46.2619L289.417 49.3763L284.866 50.7787C266.64 55.9762 243.679 61.875 219.996 61.875C196.313 61.875 173.352 55.9762 155.126 50.7787L150.596 49.3763L141.143 46.2619C133.153 43.6219 124.915 41.25 117.028 41.25C108.42 42.8587 100.697 53.3156 94.8693 63.0094L91.6155 68.6813L87.7028 75.8175C73.6579 100.939 60.7252 135.217 52.0759 170.012C43.9414 202.517 39.9874 233.661 41.4908 256.843L42.0262 262.886L42.4381 266.516L43.0559 270.806C44.4768 279.077 47.5453 288.75 55.2473 288.75C71.9693 288.75 85.9317 280.418 103.292 266.599L111.591 259.834L127.242 246.716L134.327 240.941C156.238 223.554 183.648 206.25 219.996 206.25C256.344 206.25 283.754 223.575 305.665 240.941L312.77 246.716L328.421 259.834L336.7 266.599C354.06 280.418 368.002 288.75 384.745 288.75C391.747 288.75 394.918 280.768 396.504 273.096L397.286 268.599L398.048 262.061C400.581 238.425 396.668 205.033 387.937 170.012C379.988 138.126 368.455 106.652 355.77 82.2731L348.376 68.6606L345.123 63.03C339.295 53.3156 331.572 42.8587 322.964 41.25ZM147.918 82.5C161.573 82.5 174.668 87.9325 184.323 97.6023C193.978 107.272 199.402 120.387 199.402 134.062C199.402 147.738 193.978 160.853 184.323 170.523C174.668 180.193 161.573 185.625 147.918 185.625C134.264 185.625 121.169 180.193 111.514 170.523C101.859 160.853 96.4344 147.738 96.4344 134.062C96.4344 120.387 101.859 107.272 111.514 97.6023C121.169 87.9325 134.264 82.5 147.918 82.5ZM292.074 82.5C297.118 82.5007 301.986 84.3553 305.755 87.7122C309.525 91.0692 311.933 95.6948 312.523 100.712L312.667 103.125V113.438H322.964C328.213 113.443 333.261 115.456 337.078 119.065C340.895 122.674 343.192 127.606 343.499 132.854C343.807 138.102 342.102 143.269 338.733 147.3C335.364 151.332 330.586 153.922 325.373 154.543L322.964 154.688H312.667V165C312.661 170.257 310.651 175.313 307.048 179.136C303.445 182.958 298.52 185.259 293.28 185.567C288.041 185.875 282.881 184.167 278.856 180.793C274.831 177.419 272.244 172.633 271.624 167.413L271.48 165V154.688H261.183C255.934 154.682 250.886 152.669 247.069 149.06C243.252 145.451 240.955 140.519 240.648 135.271C240.34 130.023 242.045 124.856 245.414 120.825C248.783 116.793 253.562 114.203 258.774 113.582L261.183 113.438H271.48V103.125C271.48 97.6549 273.65 92.4089 277.512 88.5409C281.374 84.673 286.612 82.5 292.074 82.5ZM147.918 123.75C145.188 123.75 142.569 124.836 140.637 126.77C138.706 128.704 137.622 131.327 137.622 134.062C137.622 136.798 138.706 139.421 140.637 141.355C142.569 143.289 145.188 144.375 147.918 144.375C150.649 144.375 153.268 143.289 155.199 141.355C157.13 139.421 158.215 136.798 158.215 134.062C158.215 131.327 157.13 128.704 155.199 126.77C153.268 124.836 150.649 123.75 147.918 123.75Z" fill="white"/>
</svg>
