<svg width="382" height="382" viewBox="0 0 382 382" fill="none" xmlns="http://www.w3.org/2000/svg">
<path d="M230.964 151.038C223.619 143.691 214.898 137.862 205.299 133.886C195.7 129.909 185.412 127.862 175.022 127.862C164.633 127.862 154.345 129.909 144.746 133.886C135.147 137.862 126.426 143.691 119.081 151.038L39.1636 230.973C24.33 245.809 15.9978 265.929 16 286.908C16.0022 307.887 24.3386 328.005 39.1753 342.838C54.012 357.671 74.1337 366.002 95.1137 366C116.094 365.998 136.214 357.662 151.047 342.826L158.537 335.733M151.047 230.973C158.393 238.321 167.114 244.149 176.713 248.126C186.311 252.102 196.599 254.149 206.989 254.149C217.379 254.149 227.667 252.102 237.266 248.126C246.864 244.149 255.586 238.321 262.931 230.973L342.825 151.038C357.661 136.206 365.998 116.087 366 95.1085C366.002 74.1298 357.67 54.0095 342.836 39.1737C328.003 24.338 307.883 16.0022 286.903 16C265.923 15.9978 245.801 24.3295 230.964 39.1621L206.978 61.584" stroke="white" stroke-width="32" stroke-linecap="round" stroke-linejoin="round"/>
</svg>
