<svg width="343" height="382" viewBox="0 0 343 382" fill="none" xmlns="http://www.w3.org/2000/svg">
<path d="M249.25 16V93.7778M93.75 16V93.7778M16 171.556H327M133.106 271.5L171.5 223.5V307.667M16 93.7778C16 83.4638 20.0957 73.5723 27.3862 66.2792C34.6767 58.9861 44.5647 54.8889 54.875 54.8889H288.125C298.435 54.8889 308.323 58.9861 315.614 66.2792C322.904 73.5723 327 83.4638 327 93.7778V327.111C327 337.425 322.904 347.317 315.614 354.61C308.323 361.903 298.435 366 288.125 366H54.875C44.5647 366 34.6767 361.903 27.3862 354.61C20.0957 347.317 16 337.425 16 327.111V93.7778Z" stroke="white" stroke-width="32" stroke-linecap="round" stroke-linejoin="round"/>
</svg>
