<svg width="382" height="382" viewBox="0 0 382 382" fill="none" xmlns="http://www.w3.org/2000/svg">
<path d="M366 191C366 287.652 287.652 366 191 366C94.3475 366 16 287.652 16 191C16 94.3475 94.3475 16 191 16C287.652 16 366 94.3475 366 191Z" stroke="white" stroke-width="32" stroke-linecap="round" stroke-linejoin="round"/>
<path d="M220.626 111.847L172.798 131.535C158.361 137.485 151.151 140.442 145.778 145.797C140.423 151.17 137.448 158.397 131.516 172.8L111.828 220.627C97.0583 256.502 89.6733 274.422 98.6158 283.365C107.541 292.307 125.496 284.94 161.353 270.152L209.181 250.465C223.601 244.515 230.811 241.557 236.183 236.185C241.556 230.812 244.513 223.62 250.446 209.182L270.133 161.372C284.903 125.497 292.288 107.577 283.346 98.6349C274.421 89.6924 256.483 97.0599 220.626 111.847Z" stroke="white" stroke-width="32" stroke-linecap="round" stroke-linejoin="round"/>
<path d="M191 191V191.175" stroke="white" stroke-width="20" stroke-linecap="round" stroke-linejoin="round"/>
</svg>
