<svg width="406" height="350" viewBox="0 0 406 350" fill="none" xmlns="http://www.w3.org/2000/svg">
<path d="M104.583 196.01H34.4792C28.9097 196.01 23.5684 193.798 19.6301 189.859C15.6919 185.921 13.4795 180.579 13.4795 175.009C13.4795 169.44 15.6919 164.098 19.6301 160.159C23.5684 156.221 28.9097 154.008 34.4792 154.008H93.331L115.118 121.352C117.034 118.464 119.634 116.094 122.688 114.456C125.741 112.817 129.153 111.959 132.618 111.959C136.083 111.959 139.495 112.817 142.548 114.456C145.602 116.094 148.202 118.464 150.118 121.352L188.617 179.105L199.117 163.354C201.038 160.474 203.641 158.115 206.694 156.484C209.747 154.854 213.156 154.003 216.617 154.008H258.617C264.186 154.008 269.528 156.221 273.466 160.159C277.404 164.098 279.616 169.44 279.616 175.009C279.616 180.579 277.404 185.921 273.466 189.859C269.528 193.798 264.186 196.01 258.617 196.01H227.817L206.012 228.667C204.097 231.555 201.496 233.924 198.443 235.563C195.389 237.202 191.978 238.06 188.512 238.06C185.047 238.06 181.636 237.202 178.582 235.563C175.529 233.924 172.928 231.555 171.013 228.667L132.513 170.914L122.013 186.665C120.099 189.534 117.507 191.888 114.467 193.518C111.427 195.148 108.033 196.004 104.583 196.01ZM290.344 0.000125333C255.134 0.000125333 223.845 13.8784 202.722 37.7321C181.548 13.8784 150.31 0.000125333 115.083 0.000125333C86.6399 -0.0417562 59.1812 10.4141 37.9687 29.3641C16.7562 48.3142 3.28171 74.4258 0.127107 102.696C-0.485536 108.249 1.13293 113.819 4.62646 118.179C8.11999 122.539 13.2024 125.333 18.7556 125.946C24.3089 126.558 29.878 124.94 34.238 121.446C38.5979 117.952 41.3915 112.869 42.0041 107.316C44.0189 89.3457 52.5867 72.7488 66.0689 60.6993C79.5512 48.6497 97.0017 41.9931 115.083 42.0023C146.285 42.0023 172.395 58.4532 183.245 84.9496C184.813 88.8284 187.504 92.1504 190.973 94.4895C194.442 96.8287 198.53 98.0783 202.714 98.0783C206.897 98.0783 210.985 96.8287 214.454 94.4895C217.923 92.1504 220.614 88.8284 222.182 84.9496C233.032 58.4532 259.142 42.0023 290.344 42.0023C309.853 41.9977 328.567 49.7353 342.376 63.5164C356.186 77.2976 363.963 95.9959 364 115.506C364 166.994 318.746 216.609 280.771 249.143C256.359 269.836 230.264 288.457 202.757 304.814C183.735 293.526 140.861 266.312 103.866 230.032C101.899 228.097 99.5697 226.568 97.0118 225.534C94.4538 224.499 91.7171 223.978 88.9579 224C86.1986 224.023 83.4708 224.589 80.9303 225.666C78.3898 226.743 76.0863 228.31 74.1513 230.277C72.2163 232.245 70.6877 234.574 69.6528 237.132C68.6179 239.69 68.0969 242.427 68.1197 245.186C68.1424 247.946 68.7084 250.674 69.7853 253.214C70.8623 255.755 72.4291 258.059 74.3963 259.994C127.578 312.164 190.157 346.098 192.8 347.499C195.865 349.141 199.289 350 202.766 350C206.243 350 209.667 349.141 212.732 347.499C220.502 343.263 406 242.108 406 115.506C405.944 84.8619 393.736 55.4909 372.054 33.8368C350.372 12.1828 320.986 0.0139789 290.344 0.000125333Z" fill="white"/>
</svg>
