<svg width="364" height="364" viewBox="0 0 364 364" fill="none" xmlns="http://www.w3.org/2000/svg">
<path d="M112 94.5C124.067 94.5 135.641 99.2933 144.174 107.826C152.707 116.359 157.5 127.933 157.5 140C157.5 152.067 152.707 163.641 144.174 172.174C135.641 180.707 124.067 185.5 112 185.5C99.9327 185.5 88.3591 180.707 79.8262 172.174C71.2933 163.641 66.5 152.067 66.5 140C66.5 127.933 71.2933 116.359 79.8262 107.826C88.3591 99.2933 99.9326 94.5 112 94.5ZM112 115.5C105.502 115.5 99.2704 118.081 94.6758 122.676C90.0811 127.27 87.5 133.502 87.5 140C87.5 146.498 90.0811 152.73 94.6758 157.324C99.2704 161.919 105.502 164.5 112 164.5C118.498 164.5 124.73 161.919 129.324 157.324C133.919 152.73 136.5 146.498 136.5 140C136.5 133.502 133.919 127.27 129.324 122.676C124.73 118.081 118.498 115.5 112 115.5Z" fill="white" stroke="white" stroke-width="7"/>
<path d="M91 160.988C92.3811 160.988 93.7488 161.26 95.0244 161.789C96.297 162.318 97.4529 163.091 98.4268 164.066H98.4277C99.4056 165.041 100.182 166.2 100.711 167.476C101.24 168.752 101.513 170.119 101.513 171.5C101.513 172.881 101.24 174.248 100.711 175.524C100.182 176.799 99.4056 177.959 98.4277 178.934L98.4268 178.935L93.6953 183.653C85.2475 192.105 80.5012 203.566 80.5 215.516V241.5C80.4999 244.285 79.3937 246.955 77.4248 248.924C75.4557 250.893 72.7848 252 70 252C67.2152 252 64.5443 250.893 62.5752 248.924C60.6063 246.955 59.5001 244.285 59.5 241.5V215.516L59.5049 214.695C59.7207 197.47 66.6559 180.998 78.8506 168.801L83.5654 164.073H83.5664C84.5417 163.095 85.7 162.319 86.9756 161.789C88.2512 161.26 89.6189 160.988 91 160.988ZM266 156.787C267.381 156.787 268.749 157.06 270.024 157.589C271.3 158.119 272.458 158.895 273.434 159.872H273.435L278.148 164.601C290.537 176.991 297.498 193.795 297.5 211.316V241.5C297.5 244.285 296.394 246.955 294.425 248.924C292.456 250.893 289.785 252 287 252C284.215 252 281.544 250.893 279.575 248.924C277.606 246.955 276.5 244.285 276.5 241.5V211.317L276.486 210.198C276.199 198.653 271.489 187.641 263.305 179.453L258.573 174.735L258.572 174.734C257.595 173.758 256.818 172.6 256.289 171.325C255.76 170.049 255.487 168.681 255.487 167.3C255.487 165.919 255.76 164.551 256.289 163.276C256.818 162 257.594 160.841 258.572 159.866V159.867C259.546 158.892 260.703 158.117 261.976 157.589C263.251 157.06 264.619 156.787 266 156.787Z" fill="white" stroke="white" stroke-width="7"/>
<path d="M175 210C188.924 210 202.277 215.531 212.123 225.377C221.969 235.223 227.5 248.576 227.5 262.5V280.7C227.5 283.485 226.394 286.156 224.425 288.125C222.456 290.094 219.785 291.2 217 291.2C214.215 291.2 211.544 290.094 209.575 288.125C207.606 286.156 206.5 283.485 206.5 280.7V262.5C206.5 254.146 203.181 246.134 197.273 240.227C191.366 234.319 183.354 231 175 231C166.646 231 158.634 234.319 152.727 240.227C146.819 246.134 143.5 254.146 143.5 262.5V280.7C143.5 283.485 142.394 286.156 140.425 288.125C138.456 290.094 135.785 291.2 133 291.2C130.215 291.2 127.544 290.094 125.575 288.125C123.606 286.156 122.5 283.485 122.5 280.7V262.5C122.5 248.576 128.031 235.223 137.877 225.377C147.723 215.531 161.076 210 175 210ZM238 94.5C250.067 94.5 261.641 99.2933 270.174 107.826C278.707 116.359 283.5 127.933 283.5 140C283.5 152.067 278.707 163.641 270.174 172.174C261.641 180.707 250.067 185.5 238 185.5C225.933 185.5 214.359 180.707 205.826 172.174C197.293 163.641 192.5 152.067 192.5 140C192.5 127.933 197.293 116.359 205.826 107.826C214.359 99.2933 225.933 94.5 238 94.5ZM238 115.5C231.502 115.5 225.27 118.081 220.676 122.676C216.081 127.27 213.5 133.502 213.5 140C213.5 146.498 216.081 152.73 220.676 157.324C225.27 161.919 231.502 164.5 238 164.5C244.498 164.5 250.73 161.919 255.324 157.324C259.919 152.73 262.5 146.498 262.5 140C262.5 133.502 259.919 127.27 255.324 122.676C250.73 118.081 244.498 115.5 238 115.5Z" fill="white" stroke="white" stroke-width="7"/>
<path d="M175 133C187.067 133 198.641 137.793 207.174 146.326C215.707 154.859 220.5 166.433 220.5 178.5C220.5 190.567 215.707 202.141 207.174 210.674C198.641 219.207 187.067 224 175 224C162.933 224 151.359 219.207 142.826 210.674C134.293 202.141 129.5 190.567 129.5 178.5C129.5 166.433 134.293 154.859 142.826 146.326C151.359 137.793 162.933 133 175 133ZM175 154C168.502 154 162.27 156.581 157.676 161.176C153.081 165.77 150.5 172.002 150.5 178.5C150.5 184.998 153.081 191.23 157.676 195.824C162.27 200.419 168.502 203 175 203C181.498 203 187.73 200.419 192.324 195.824C196.919 191.23 199.5 184.998 199.5 178.5C199.5 172.002 196.919 165.77 192.324 161.176C187.73 156.581 181.498 154 175 154Z" fill="white" stroke="white" stroke-width="7"/>
<path d="M182 3.5C280.589 3.5 360.5 83.411 360.5 182C360.5 280.589 280.589 360.5 182 360.5C83.411 360.5 3.5 280.589 3.5 182C3.5 83.411 83.411 3.5 182 3.5ZM182 24.5C95.019 24.5 24.5 95.019 24.5 182C24.5 268.981 95.019 339.5 182 339.5C268.981 339.5 339.5 268.981 339.5 182C339.5 95.019 268.981 24.5 182 24.5Z" fill="white" stroke="white" stroke-width="7"/>
</svg>
