<svg width="385" height="350" viewBox="0 0 385 350" fill="none" xmlns="http://www.w3.org/2000/svg">
<path fill-rule="evenodd" clip-rule="evenodd" d="M332.5 35H52.5C47.8587 35 43.4075 36.8438 40.1256 40.1256C36.8437 43.4075 35 47.8587 35 52.5V297.5C35 302.141 36.8437 306.592 40.1256 309.874C43.4075 313.156 47.8587 315 52.5 315H332.5C337.141 315 341.592 313.156 344.874 309.874C348.156 306.592 350 302.141 350 297.5V52.5C350 47.8587 348.156 43.4075 344.874 40.1256C341.592 36.8438 337.141 35 332.5 35ZM52.5 0C38.5761 0 25.2226 5.53124 15.3769 15.3769C5.53123 25.2226 0 38.5761 0 52.5V297.5C0 311.424 5.53123 324.777 15.3769 334.623C25.2226 344.469 38.5761 350 52.5 350H332.5C346.424 350 359.777 344.469 369.623 334.623C379.469 324.777 385 311.424 385 297.5V52.5C385 38.5761 379.469 25.2226 369.623 15.3769C359.777 5.53124 346.424 0 332.5 0H52.5ZM87.5 87.5H122.5V122.5H87.5V87.5ZM175 87.5C170.359 87.5 165.908 89.3438 162.626 92.6256C159.344 95.9075 157.5 100.359 157.5 105C157.5 109.641 159.344 114.092 162.626 117.374C165.908 120.656 170.359 122.5 175 122.5H280C284.641 122.5 289.092 120.656 292.374 117.374C295.656 114.092 297.5 109.641 297.5 105C297.5 100.359 295.656 95.9075 292.374 92.6256C289.092 89.3438 284.641 87.5 280 87.5H175ZM122.5 157.5H87.5V192.5H122.5V157.5ZM157.5 175C157.5 170.359 159.344 165.908 162.626 162.626C165.908 159.344 170.359 157.5 175 157.5H280C284.641 157.5 289.092 159.344 292.374 162.626C295.656 165.908 297.5 170.359 297.5 175C297.5 179.641 295.656 184.092 292.374 187.374C289.092 190.656 284.641 192.5 280 192.5H175C170.359 192.5 165.908 190.656 162.626 187.374C159.344 184.092 157.5 179.641 157.5 175ZM122.5 227.5H87.5V262.5H122.5V227.5ZM157.5 245C157.5 240.359 159.344 235.908 162.626 232.626C165.908 229.344 170.359 227.5 175 227.5H280C284.641 227.5 289.092 229.344 292.374 232.626C295.656 235.908 297.5 240.359 297.5 245C297.5 249.641 295.656 254.092 292.374 257.374C289.092 260.656 284.641 262.5 280 262.5H175C170.359 262.5 165.908 260.656 162.626 257.374C159.344 254.092 157.5 249.641 157.5 245Z" fill="white"/>
</svg>
