<svg width="240" height="231" viewBox="0 0 240 231" fill="none" xmlns="http://www.w3.org/2000/svg">
<path d="M18.4295 74.4517L9.21473 83.675L0 74.4517L9.21473 65.2284L18.4295 74.4517ZM83.5973 231C80.1405 231 76.8254 229.626 74.3811 227.179C71.9369 224.732 70.5637 221.414 70.5637 217.954C70.5637 214.494 71.9369 211.176 74.3811 208.73C76.8254 206.283 80.1405 204.909 83.5973 204.909V231ZM74.3825 148.903L9.21473 83.675L27.6442 65.2284L92.812 130.457L74.3825 148.903ZM9.21473 65.2284L74.3825 0L92.812 18.4466L27.6442 83.675L9.21473 65.2284ZM18.4295 61.406H155.282V87.4974H18.4295V61.406ZM155.282 231H83.5973V204.909H155.282V231ZM240 146.203C240 168.693 231.074 190.261 215.187 206.164C199.299 222.066 177.751 231 155.282 231V204.909C162.984 204.909 170.611 203.39 177.727 200.44C184.842 197.49 191.308 193.165 196.754 187.714C202.201 182.263 206.521 175.791 209.468 168.669C212.416 161.546 213.933 153.912 213.933 146.203H240ZM155.282 61.406C177.751 61.406 199.299 70.34 215.187 86.2425C231.074 102.145 240 123.713 240 146.203H213.933C213.933 138.494 212.416 130.86 209.468 123.737C206.521 116.615 202.201 110.143 196.754 104.692C191.308 99.2406 184.842 94.9164 177.727 91.9661C170.611 89.0159 162.984 87.4974 155.282 87.4974V61.406Z" fill="#0C2C5B"/>
</svg>
