<svg width="240" height="263" viewBox="0 0 240 263" fill="none" xmlns="http://www.w3.org/2000/svg">
<path d="M30 232.943H75V157.8C75 153.542 76.44 149.975 79.32 147.1C82.2 144.224 85.76 142.781 90 142.771H150C154.25 142.771 157.815 144.214 160.695 147.1C163.575 149.985 165.01 153.552 165 157.8V232.943H210V97.6857L120 30.0571L30 97.6857V232.943ZM0 232.943V97.6857C0 92.9266 1.065 88.4181 3.195 84.16C5.325 79.9019 8.26 76.3952 12 73.64L102 6.01143C107.25 2.00381 113.25 0 120 0C126.75 0 132.75 2.00381 138 6.01143L228 73.64C231.75 76.3952 234.69 79.9019 236.82 84.16C238.95 88.4181 240.01 92.9266 240 97.6857V232.943C240 241.209 237.06 248.287 231.18 254.178C225.3 260.069 218.24 263.01 210 263H150C145.75 263 142.19 261.557 139.32 258.672C136.45 255.786 135.01 252.219 135 247.971V172.829H105V247.971C105 252.229 103.56 255.801 100.68 258.687C97.8 261.572 94.24 263.01 90 263H30C21.75 263 14.69 260.059 8.81999 254.178C2.95 248.297 0.01 241.219 0 232.943Z" fill="#0C2C5B"/>
</svg>
