<svg width="2240" height="4356" viewBox="0 0 2240 4356" fill="none" xmlns="http://www.w3.org/2000/svg">
<g opacity="0.5">
<path d="M1822.49 4356.2V2489.42L1690.14 2189.64L1822.49 1889.86V426.606" stroke="url(#paint0_linear_2718_43)" stroke-width="17.6661"/>
<path d="M2181.71 4356.2V3782.22L2230.83 3670.95V3367.18L2181.71 3255.92V3052.81" stroke="url(#paint1_linear_2718_43)" stroke-width="17.6661"/>
<path d="M1322.82 4356.2V4084.22L1511.51 3656.82M1511.51 3656.82L1322.82 3229.42V673.862M1511.51 3656.82V3420.16M1511.51 3420.16V1037.68M1511.51 3420.16L1382.08 3126.99V1458.02" stroke="url(#paint2_linear_2718_43)" stroke-width="17.6661"/>
<path d="M1366.03 4356.2V4096.58L1559.14 3659.15V1745.89" stroke="url(#paint3_linear_2718_43)" stroke-width="17.6661"/>
<path d="M1468.67 4356.2V4108.95L1670.61 3651.53V2337.54L1601.02 2179.9L1670.61 2022.26V1346.75" stroke="url(#paint4_linear_2718_43)" stroke-width="17.6661"/>
<path d="M1872.46 4356.2V2945.08" stroke="url(#paint5_linear_2718_43)" stroke-width="17.6661"/>
<path d="M1822.54 3972.96L1752.37 3814.01V2711.95" stroke="url(#paint6_linear_2718_43)" stroke-width="17.6661"/>
<path d="M1220.18 4356.2V4181.36L989.256 3658.27L1220.18 3135.18V2001.98L1079.74 1683.84V181.117" stroke="url(#paint7_linear_2718_43)" stroke-width="17.6661"/>
<path d="M1171.57 4356.2V4188.42L935.241 3653.1M935.241 3653.1L1171.57 3117.77V1987.85L1078.79 1777.68M935.241 3653.1V3227.66M935.241 3227.66L1055.31 2955.68V2032L1003.85 1915.44L1003.85 1399.73M935.241 3227.66V3117.77M935.241 3117.77L935.241 1175.44M935.241 3117.77L1006.8 2955.68V2032L955.343 1915.44V1574.58" stroke="url(#paint8_linear_2718_43)" stroke-width="17.6661"/>
<path d="M1025.72 4356.2V4188.42M1025.72 4188.42L786.356 3646.23V2876.2L617.882 2494.58L786.356 2112.96V1664.65L869.066 1477.3L869.066 635.008M1025.72 4188.42V4068.33L839.374 3646.23V2609.52L901.477 2468.85L839.374 2328.17V1726.46" stroke="url(#paint9_linear_2718_43)" stroke-width="17.6661"/>
<path d="M877.176 4356.2V4004.75" stroke="url(#paint10_linear_2718_43)" stroke-width="17.6661"/>
<path d="M750.234 4356.2V3028.09" stroke="url(#paint11_linear_2718_43)" stroke-width="17.6661"/>
<path d="M586.828 4356.2V3153.48M586.828 3153.48L707.679 2879.73L586.828 2605.99V2249.23M586.828 3153.48L465.977 2879.73M586.828 2249.23L732.629 1918.97L732.629 1470.38M586.828 2249.23V2062.03M586.828 2062.03V1293.77M586.828 2062.03L627.342 1970.26V1627.56M465.977 2879.73V2249.23L291.079 1853.06V1526.89M465.977 2879.73L507.3 2786.13M515.097 1410.33V1551.62L548.623 1627.56V2692.53L507.3 2786.13M507.3 2786.13L515.097 2183.89L398.144 1918.97V1793.58" stroke="url(#paint12_linear_2718_43)" stroke-width="17.6661"/>
<path d="M467.986 4356.2V3928.8M467.986 3928.8L527.406 3794.21V3393.67M467.986 3928.8L342.394 3644.32V3164.08L60.1497 2524.75V2367.56M527.406 3393.67L229.567 2719.02V1265.51M527.406 3393.67V3231.19L342.394 2812.11L342.394 2367.56" stroke="url(#paint13_linear_2718_43)" stroke-width="17.6661"/>
<path d="M133.074 4356.2L133.074 3231.19L8.83257 2949.76L8.83257 2194.48" stroke="url(#paint14_linear_2718_43)" stroke-width="17.6661"/>
<path d="M45.2969 4356.2L45.2969 3552.62" stroke="url(#paint15_linear_2718_43)" stroke-width="17.6661"/>
<path d="M176.288 4356.2L176.288 3337.16L224.629 3227.66V3102.26" stroke="url(#paint16_linear_2718_43)" stroke-width="17.6661"/>
<path d="M439.629 4356.2V3923.51L275.895 3552.62V3367.18" stroke="url(#paint17_linear_2718_43)" stroke-width="17.6661"/>
<path d="M299.17 4356.2V4154.87M299.17 4154.87L213.405 3960.59V3499.64M299.17 4154.87L330.23 4084.51V3819.31" stroke="url(#paint18_linear_2718_43)" stroke-width="17.6661"/>
<path d="M2006.15 4356.2V2575.96L2121.55 2314.58V1325.56" stroke="url(#paint19_linear_2718_43)" stroke-width="17.6661"/>
<path d="M2123.64 4356.2V2876.2" stroke="url(#paint20_linear_2718_43)" stroke-width="17.6661"/>
<path d="M1965.64 4356.2V2581.26L2084.16 2312.81V2093.82M2084.16 2093.82L1965.64 1825.37V1553.39M2084.16 2093.82V1412.1" stroke="url(#paint21_linear_2718_43)" stroke-width="17.6661"/>
<path d="M824.09 550.955C830.433 544.589 836.742 538.244 843.108 531.944C850.606 539.578 858.34 547.12 865.73 554.592L869.19 558.092L872.68 554.621C880.185 547.154 887.536 539.759 894.985 532.341C901.332 538.692 907.687 545.056 914.041 551.409C899.163 566.395 884.299 581.36 869.266 596.144C854.196 581.05 839.142 566.051 824.09 550.955ZM868.737 454.135C883.923 469.143 899.02 484.239 914.029 499.413C907.654 505.731 901.3 512.072 894.986 518.462C887.432 510.879 879.859 503.305 872.26 495.767L868.766 492.302L865.31 495.804C858.096 503.115 850.489 510.575 843.132 518.025C836.719 511.652 830.324 505.295 823.982 498.895C838.945 484.023 853.86 469.094 868.737 454.135Z" stroke="#60FFDA" stroke-width="9.81449"/>
<path d="M1035.87 103.838C1042.22 97.4722 1048.53 91.1263 1054.89 84.8272C1062.39 92.461 1070.12 100.003 1077.51 107.475L1080.98 110.975L1084.46 107.504C1091.97 100.037 1099.32 92.6415 1106.77 85.2242C1113.12 91.5752 1119.47 97.9389 1125.83 104.292C1110.95 119.278 1096.08 134.243 1081.05 149.027C1065.98 133.933 1050.93 118.934 1035.87 103.838ZM1080.52 7.0178C1095.71 22.0257 1110.81 37.1223 1125.81 52.2954C1119.44 58.6142 1113.08 64.955 1106.77 71.3452C1099.22 63.7617 1091.64 56.1875 1084.05 48.6494L1080.55 45.185L1077.1 48.6867C1069.88 55.9979 1062.27 63.4576 1054.92 70.9074C1048.5 64.5348 1042.11 58.1779 1035.77 51.7775C1050.73 36.9054 1065.65 21.9764 1080.52 7.0178Z" stroke="#60FFDA" stroke-width="9.81449"/>
<path d="M2078.38 2789.53C2084.72 2783.16 2091.03 2776.82 2097.4 2770.52C2104.9 2778.15 2112.63 2785.7 2120.02 2793.17L2123.48 2796.67L2126.97 2793.2C2134.47 2785.73 2141.82 2778.33 2149.27 2770.92C2155.62 2777.27 2161.98 2783.63 2168.33 2789.98C2153.45 2804.97 2138.59 2819.94 2123.55 2834.72C2108.48 2819.63 2093.43 2804.63 2078.38 2789.53ZM2123.03 2692.71C2138.21 2707.72 2153.31 2722.81 2168.32 2737.99C2161.94 2744.31 2155.59 2750.65 2149.28 2757.04C2141.72 2749.45 2134.15 2741.88 2126.55 2734.34L2123.06 2730.88L2119.6 2734.38C2112.39 2741.69 2104.78 2749.15 2097.42 2756.6C2091.01 2750.23 2084.61 2743.87 2078.27 2737.47C2093.23 2722.6 2108.15 2707.67 2123.03 2692.71Z" stroke="#60FFDA" stroke-width="9.81449"/>
<path d="M404.027 3641.43C410.371 3635.06 416.679 3628.72 423.045 3622.42C430.544 3630.05 438.277 3637.6 445.667 3645.07L449.128 3648.57L452.617 3645.1C460.123 3637.63 467.473 3630.23 474.923 3622.82C481.269 3629.17 487.625 3635.53 493.978 3641.88C479.1 3656.87 464.236 3671.83 449.203 3686.62C434.133 3671.52 419.079 3656.53 404.027 3641.43ZM448.675 3544.61C463.861 3559.62 478.958 3574.71 493.966 3589.89C487.592 3596.21 481.237 3602.55 474.924 3608.94C467.369 3601.35 459.796 3593.78 452.197 3586.24L448.704 3582.78L445.248 3586.28C438.034 3593.59 430.427 3601.05 423.07 3608.5C416.657 3602.13 410.261 3595.77 403.919 3589.37C418.882 3574.5 433.798 3559.57 448.675 3544.61Z" stroke="#0D94F5" stroke-width="9.81449"/>
<path d="M1621.01 1242.87C1627.35 1236.5 1633.66 1230.15 1640.03 1223.85C1647.52 1231.49 1655.26 1239.03 1662.65 1246.5L1666.11 1250L1669.6 1246.53C1677.1 1239.06 1684.45 1231.67 1691.9 1224.25C1698.25 1230.6 1704.61 1236.97 1710.96 1243.32C1696.08 1258.3 1681.22 1273.27 1666.18 1288.05C1651.11 1272.96 1636.06 1257.96 1621.01 1242.87ZM1665.66 1146.05C1680.84 1161.05 1695.94 1176.15 1710.95 1191.32C1704.57 1197.64 1698.22 1203.98 1691.9 1210.37C1684.35 1202.79 1676.78 1195.21 1669.18 1187.68L1665.68 1184.21L1662.23 1187.71C1655.01 1195.03 1647.41 1202.48 1640.05 1209.93C1633.64 1203.56 1627.24 1197.21 1620.9 1190.8C1635.86 1175.93 1650.78 1161 1665.66 1146.05Z" stroke="#60FFDA" stroke-width="9.81449"/>
<path d="M1277.51 583.342C1283.85 576.976 1290.16 570.63 1296.53 564.331C1304.02 571.965 1311.76 579.507 1319.15 586.979L1322.61 590.479L1326.1 587.008C1333.6 579.541 1340.95 572.145 1348.4 564.728C1354.75 571.079 1361.11 577.443 1367.46 583.796C1352.58 598.782 1337.72 613.747 1322.68 628.531C1307.61 613.437 1292.56 598.438 1277.51 583.342ZM1322.16 486.522C1337.34 501.53 1352.44 516.626 1367.45 531.799C1361.07 538.118 1354.72 544.459 1348.4 550.849C1340.85 543.266 1333.28 535.691 1325.68 528.153L1322.18 524.689L1318.73 528.191C1311.51 535.502 1303.91 542.962 1296.55 550.411C1290.14 544.039 1283.74 537.682 1277.4 531.281C1292.36 516.409 1307.28 501.48 1322.16 486.522Z" stroke="#60FFDA" stroke-width="9.81449"/>
<path d="M184.187 1154.54C190.531 1148.17 196.839 1141.82 203.205 1135.53C210.704 1143.16 218.437 1150.7 225.827 1158.17L229.288 1161.67L232.777 1158.2C240.283 1150.73 247.633 1143.34 255.083 1135.92C261.43 1142.27 267.785 1148.64 274.138 1154.99C259.26 1169.98 244.396 1184.94 229.363 1199.73C214.293 1184.63 199.24 1169.63 184.187 1154.54ZM228.835 1057.72C244.021 1072.72 259.118 1087.82 274.127 1102.99C267.752 1109.31 261.397 1115.65 255.084 1122.04C247.529 1114.46 239.956 1106.89 232.358 1099.35L228.864 1095.88L225.408 1099.38C218.194 1106.7 210.587 1114.16 203.23 1121.61C196.817 1115.23 190.422 1108.88 184.08 1102.48C199.042 1087.6 213.958 1072.67 228.835 1057.72Z" stroke="#60FFDA" stroke-width="9.81449"/>
<path d="M1778.06 325.193C1784.4 318.827 1790.71 312.481 1797.08 306.182C1804.58 313.815 1812.31 321.358 1819.7 328.83L1823.16 332.329L1826.65 328.858C1834.15 321.391 1841.5 313.996 1848.95 306.579C1855.3 312.93 1861.66 319.293 1868.01 325.646C1853.13 340.632 1838.27 355.597 1823.23 370.381C1808.16 355.287 1793.11 340.289 1778.06 325.193ZM1822.71 228.372C1837.89 243.38 1852.99 258.477 1868 273.65C1861.62 279.969 1855.27 286.309 1848.95 292.7C1841.4 285.116 1833.83 277.542 1826.23 270.004L1822.74 266.539L1819.28 270.041C1812.07 277.352 1804.46 284.812 1797.1 292.262C1790.69 285.889 1784.29 279.532 1777.95 273.132C1792.91 258.26 1807.83 243.331 1822.71 228.372Z" stroke="#60FFDA" stroke-width="9.81449"/>
<path d="M2076.42 1241.87C2082.76 1235.5 2089.07 1229.16 2095.44 1222.86C2102.93 1230.49 2110.67 1238.03 2118.06 1245.51L2121.52 1249.01L2125.01 1245.53C2132.51 1238.07 2139.86 1230.67 2147.31 1223.26C2153.66 1229.61 2160.02 1235.97 2166.37 1242.32C2151.49 1257.31 2136.63 1272.27 2121.59 1287.06C2106.52 1271.96 2091.47 1256.97 2076.42 1241.87ZM2121.07 1145.05C2136.25 1160.06 2151.35 1175.15 2166.36 1190.33C2159.98 1196.65 2153.63 1202.99 2147.31 1209.38C2139.76 1201.79 2132.19 1194.22 2124.59 1186.68L2121.09 1183.22L2117.64 1186.72C2110.42 1194.03 2102.82 1201.49 2095.46 1208.94C2089.05 1202.57 2082.65 1196.21 2076.31 1189.81C2091.27 1174.94 2106.19 1160.01 2121.07 1145.05Z" stroke="#60FFDA" stroke-width="9.81449"/>
<path d="M1805.15 2243.83C1820.75 2228.19 1836.25 2212.58 1851.92 2197.1C1869.29 2214.85 1887.23 2232.33 1904.49 2249.77L1910.03 2255.37L1915.61 2249.82C1933.03 2232.48 1950.15 2215.25 1967.49 2197.99C1983.09 2213.6 1998.69 2229.23 2014.3 2244.84C1979.71 2279.68 1945.15 2314.5 1910.16 2348.87C1875.15 2313.8 1840.13 2278.92 1805.15 2243.83ZM1908.98 2023.73C1944.3 2058.61 1979.4 2093.71 2014.29 2128.99C1998.61 2144.52 1983 2160.1 1967.5 2175.81C1949.94 2158.18 1932.34 2140.56 1914.68 2123.04L1909.09 2117.5L1903.56 2123.1C1886.68 2140.2 1869.03 2157.48 1851.96 2174.82C1836.21 2159.17 1820.49 2143.55 1804.91 2127.8C1839.71 2093.23 1874.39 2058.51 1908.98 2023.73Z" stroke="#40D6E4" stroke-width="15.7032"/>
<path d="M1553.9 4185.16C1569.5 4169.52 1585 4153.91 1600.67 4138.43C1618.04 4156.18 1635.98 4173.65 1653.24 4191.1L1658.78 4196.7L1664.36 4191.14C1681.78 4173.81 1698.9 4156.57 1716.24 4139.32C1731.84 4154.92 1747.44 4170.56 1763.05 4186.17C1728.46 4221.01 1693.9 4255.83 1658.91 4290.2C1623.9 4255.12 1588.88 4220.25 1553.9 4185.16ZM1657.73 3965.05C1693.05 3999.94 1728.15 4035.04 1763.04 4070.32C1747.36 4085.84 1731.75 4101.42 1716.25 4117.14C1698.69 4099.5 1681.09 4081.89 1663.43 4064.37L1657.84 4058.82L1652.31 4064.43C1635.43 4081.53 1617.78 4098.81 1600.71 4116.15C1584.96 4100.49 1569.24 4084.87 1553.66 4069.13C1588.46 4034.56 1623.14 3999.84 1657.73 3965.05Z" stroke="#0D94F5" stroke-width="15.7032"/>
<path d="M1090.96 3739.04C1115.74 3714.19 1140.37 3689.37 1165.29 3664.78C1192.22 3692.36 1220.05 3719.43 1246.89 3746.58L1253.81 3753.58L1260.79 3746.63C1287.83 3719.74 1314.43 3692.94 1341.38 3666.15C1366.15 3690.94 1390.94 3715.78 1415.74 3740.57C1362.02 3794.67 1308.34 3848.75 1253.99 3902.13C1199.65 3847.67 1145.26 3793.52 1090.96 3739.04ZM1252.2 3400.61C1307.05 3454.77 1361.55 3509.27 1415.71 3564.06C1390.81 3588.72 1366.01 3613.47 1341.39 3638.43C1314.13 3611.05 1286.8 3583.71 1259.37 3556.5L1252.39 3549.57L1245.48 3556.58C1219.2 3583.21 1191.83 3609.98 1165.34 3636.93C1140.32 3612.06 1115.33 3587.25 1090.59 3562.22C1144.63 3508.54 1198.49 3454.63 1252.2 3400.61Z" stroke="#0D94F5" stroke-width="19.629"/>
<path d="M531.175 2913.85C538.747 2906.25 546.278 2898.68 553.876 2891.16C562.835 2900.28 572.074 2909.29 580.902 2918.21L585.055 2922.41L589.243 2918.25C598.209 2909.33 606.989 2900.49 615.889 2891.63C623.466 2899.21 631.053 2906.81 638.638 2914.39C620.864 2932.3 603.107 2950.17 585.148 2967.84C567.144 2949.8 549.158 2931.89 531.175 2913.85ZM584.516 2798.15C602.657 2816.08 620.694 2834.11 638.624 2852.24C631.014 2859.78 623.429 2867.35 615.892 2874.98C606.867 2865.92 597.819 2856.87 588.741 2847.86L584.549 2843.71L580.402 2847.91C571.784 2856.64 562.696 2865.55 553.907 2874.45C546.251 2866.85 538.618 2859.26 531.047 2851.62C548.922 2833.85 566.742 2816.02 584.516 2798.15Z" stroke="#23B1EE" stroke-width="11.7774"/>
<path d="M705.878 2515.38C713.45 2507.78 720.981 2500.21 728.579 2492.69C737.538 2501.81 746.777 2510.82 755.605 2519.75L759.758 2523.95L763.946 2519.78C772.912 2510.86 781.692 2502.02 790.592 2493.16C798.169 2500.74 805.755 2508.34 813.34 2515.92C795.567 2533.83 777.81 2551.71 759.851 2569.37C741.847 2551.33 723.861 2533.42 705.878 2515.38ZM759.219 2399.68C777.36 2417.61 795.397 2435.64 813.327 2453.77C805.717 2461.31 798.132 2468.88 790.595 2476.51C781.57 2467.45 772.522 2458.4 763.444 2449.4L759.252 2445.24L755.105 2449.44C746.487 2458.17 737.399 2467.09 728.61 2475.99C720.954 2468.38 713.321 2460.79 705.75 2453.15C723.626 2435.38 741.445 2417.55 759.219 2399.68Z" stroke="#27B6ED" stroke-width="11.7774"/>
</g>
<defs>
<linearGradient id="paint0_linear_2718_43" x1="1756.32" y1="4356.2" x2="1756.32" y2="426.606" gradientUnits="userSpaceOnUse">
<stop offset="0.288462" stop-color="#0D94F5"/>
<stop offset="1" stop-color="#60FFDA"/>
</linearGradient>
<linearGradient id="paint1_linear_2718_43" x1="2206.27" y1="4356.2" x2="2206.27" y2="3052.81" gradientUnits="userSpaceOnUse">
<stop offset="0.288462" stop-color="#0D94F5"/>
<stop offset="1" stop-color="#60FFDA"/>
</linearGradient>
<linearGradient id="paint2_linear_2718_43" x1="1417.17" y1="4356.2" x2="1417.17" y2="673.862" gradientUnits="userSpaceOnUse">
<stop offset="0.288462" stop-color="#0D94F5"/>
<stop offset="1" stop-color="#60FFDA"/>
</linearGradient>
<linearGradient id="paint3_linear_2718_43" x1="1462.59" y1="4356.2" x2="1462.59" y2="1745.89" gradientUnits="userSpaceOnUse">
<stop offset="0.288462" stop-color="#0D94F5"/>
<stop offset="1" stop-color="#60FFDA"/>
</linearGradient>
<linearGradient id="paint4_linear_2718_43" x1="1569.64" y1="4356.2" x2="1569.64" y2="1346.75" gradientUnits="userSpaceOnUse">
<stop offset="0.288462" stop-color="#0D94F5"/>
<stop offset="1" stop-color="#60FFDA"/>
</linearGradient>
<linearGradient id="paint5_linear_2718_43" x1="1871.96" y1="4356.2" x2="1871.96" y2="2945.08" gradientUnits="userSpaceOnUse">
<stop offset="0.288462" stop-color="#0D94F5"/>
<stop offset="1" stop-color="#60FFDA"/>
</linearGradient>
<linearGradient id="paint6_linear_2718_43" x1="1787.45" y1="3972.96" x2="1787.45" y2="2711.95" gradientUnits="userSpaceOnUse">
<stop offset="0.288462" stop-color="#0D94F5"/>
<stop offset="1" stop-color="#60FFDA"/>
</linearGradient>
<linearGradient id="paint7_linear_2718_43" x1="1104.72" y1="4356.2" x2="1104.72" y2="181.117" gradientUnits="userSpaceOnUse">
<stop offset="0.288462" stop-color="#0D94F5"/>
<stop offset="1" stop-color="#60FFDA"/>
</linearGradient>
<linearGradient id="paint8_linear_2718_43" x1="1053.41" y1="4356.2" x2="1053.41" y2="1175.44" gradientUnits="userSpaceOnUse">
<stop offset="0.288462" stop-color="#0D94F5"/>
<stop offset="1" stop-color="#60FFDA"/>
</linearGradient>
<linearGradient id="paint9_linear_2718_43" x1="821.8" y1="4356.2" x2="821.8" y2="635.008" gradientUnits="userSpaceOnUse">
<stop offset="0.288462" stop-color="#0D94F5"/>
<stop offset="1" stop-color="#60FFDA"/>
</linearGradient>
<linearGradient id="paint10_linear_2718_43" x1="876.676" y1="4356.2" x2="876.676" y2="4004.75" gradientUnits="userSpaceOnUse">
<stop offset="0.288462" stop-color="#0D94F5"/>
<stop offset="1" stop-color="#60FFDA"/>
</linearGradient>
<linearGradient id="paint11_linear_2718_43" x1="749.734" y1="4356.2" x2="749.734" y2="3028.09" gradientUnits="userSpaceOnUse">
<stop offset="0.288462" stop-color="#0D94F5"/>
<stop offset="1" stop-color="#60FFDA"/>
</linearGradient>
<linearGradient id="paint12_linear_2718_43" x1="511.854" y1="4356.2" x2="511.854" y2="1293.77" gradientUnits="userSpaceOnUse">
<stop offset="0.288462" stop-color="#0D94F5"/>
<stop offset="1" stop-color="#60FFDA"/>
</linearGradient>
<linearGradient id="paint13_linear_2718_43" x1="293.778" y1="4356.2" x2="293.778" y2="1265.51" gradientUnits="userSpaceOnUse">
<stop offset="0.288462" stop-color="#0D94F5"/>
<stop offset="1" stop-color="#60FFDA"/>
</linearGradient>
<linearGradient id="paint14_linear_2718_43" x1="70.9534" y1="4356.2" x2="70.9534" y2="2194.48" gradientUnits="userSpaceOnUse">
<stop offset="0.288462" stop-color="#0D94F5"/>
<stop offset="1" stop-color="#60FFDA"/>
</linearGradient>
<linearGradient id="paint15_linear_2718_43" x1="44.7969" y1="4356.2" x2="44.7969" y2="3552.62" gradientUnits="userSpaceOnUse">
<stop offset="0.288462" stop-color="#0D94F5"/>
<stop offset="1" stop-color="#60FFDA"/>
</linearGradient>
<linearGradient id="paint16_linear_2718_43" x1="200.459" y1="4356.2" x2="200.459" y2="3102.26" gradientUnits="userSpaceOnUse">
<stop offset="0.288462" stop-color="#0D94F5"/>
<stop offset="1" stop-color="#60FFDA"/>
</linearGradient>
<linearGradient id="paint17_linear_2718_43" x1="357.762" y1="4356.2" x2="357.762" y2="3367.18" gradientUnits="userSpaceOnUse">
<stop offset="0.288462" stop-color="#0D94F5"/>
<stop offset="1" stop-color="#60FFDA"/>
</linearGradient>
<linearGradient id="paint18_linear_2718_43" x1="271.818" y1="4356.2" x2="271.818" y2="3499.64" gradientUnits="userSpaceOnUse">
<stop offset="0.288462" stop-color="#0D94F5"/>
<stop offset="1" stop-color="#60FFDA"/>
</linearGradient>
<linearGradient id="paint19_linear_2718_43" x1="2063.85" y1="4356.2" x2="2063.85" y2="1325.56" gradientUnits="userSpaceOnUse">
<stop offset="0.288462" stop-color="#0D94F5"/>
<stop offset="1" stop-color="#60FFDA"/>
</linearGradient>
<linearGradient id="paint20_linear_2718_43" x1="2123.14" y1="4356.2" x2="2123.14" y2="2876.2" gradientUnits="userSpaceOnUse">
<stop offset="0.288462" stop-color="#0D94F5"/>
<stop offset="1" stop-color="#60FFDA"/>
</linearGradient>
<linearGradient id="paint21_linear_2718_43" x1="2024.9" y1="4356.2" x2="2024.9" y2="1412.1" gradientUnits="userSpaceOnUse">
<stop offset="0.288462" stop-color="#0D94F5"/>
<stop offset="1" stop-color="#60FFDA"/>
</linearGradient>
</defs>
</svg>
